<svg xmlns="http://www.w3.org/2000/svg" width="512" height="512" viewBox="0 0 128 128" role="img" aria-label="SnapVid app icon"><defs><linearGradient id="sv" x1="0" y1="0" x2="0" y2="1"><stop offset="0" stop-color="#FF8D4F"/><stop offset="1" stop-color="#E94A14"/></linearGradient></defs><rect width="128" height="128" rx="31.25" fill="url(#sv)"/><path d="M27.22 51.97 A8.50 8.50 0 0 1 23.50 59.00 L104.50 59.00 A8.50 8.50 0 0 1 100.78 51.97 L59.22 113.03 A8.50 8.50 0 0 1 68.78 113.03 Z M53.5 15 h21 a10.5 10.5 0 0 1 10.5 10.5 V67 a10.5 10.5 0 0 1 -21 0 V25.5 a10.5 10.5 0 0 1 10.5 -10.5 Z" fill="#FFFFFF" transform="translate(64 63) scale(0.94) translate(-64 -63)"/></svg>